<svg width="210" height="31" viewBox="0 0 210 31" fill="none" xmlns="http://www.w3.org/2000/svg">
<path d="M2 8.98334C6.6 18.95 20.4 18.95 25 8.98334" stroke="#373737" stroke-width="2.8" stroke-linecap="round" stroke-linejoin="round"/>
<path d="M20.8848 14.0702L24.9999 19.7167" stroke="#373737" stroke-width="2.8" stroke-linecap="round" stroke-linejoin="round"/>
<path d="M13.5 16.4583V22.0167" stroke="#373737" stroke-width="2.8" stroke-linecap="round" stroke-linejoin="round"/>
<path d="M6.11521 14.0702L2 19.7167" stroke="#373737" stroke-width="2.8" stroke-linecap="round" stroke-linejoin="round"/>
<path d="M46.9982 19.84H41.4382L40.5182 22.5H37.5782L42.5982 8.52H45.8582L50.8782 22.5H47.9182L46.9982 19.84ZM46.2382 17.6L44.2182 11.76L42.1982 17.6H46.2382ZM58.8946 11.26C60.2146 11.26 61.2813 11.68 62.0946 12.52C62.9079 13.3467 63.3146 14.5067 63.3146 16V22.5H60.5146V16.38C60.5146 15.5 60.2946 14.8267 59.8546 14.36C59.4146 13.88 58.8146 13.64 58.0546 13.64C57.2813 13.64 56.6679 13.88 56.2146 14.36C55.7746 14.8267 55.5546 15.5 55.5546 16.38V22.5H52.7546V11.42H55.5546V12.8C55.9279 12.32 56.4013 11.9467 56.9746 11.68C57.5613 11.4 58.2013 11.26 58.8946 11.26ZM65.2573 16.92C65.2573 15.8 65.4773 14.8067 65.9173 13.94C66.3706 13.0733 66.9773 12.4067 67.7373 11.94C68.5106 11.4733 69.3706 11.24 70.3173 11.24C71.1439 11.24 71.8639 11.4067 72.4773 11.74C73.1039 12.0733 73.6039 12.4933 73.9773 13V11.42H76.7973V22.5H73.9773V20.88C73.6173 21.4 73.1173 21.8333 72.4773 22.18C71.8506 22.5133 71.1239 22.68 70.2973 22.68C69.3639 22.68 68.5106 22.44 67.7373 21.96C66.9773 21.48 66.3706 20.8067 65.9173 19.94C65.4773 19.06 65.2573 18.0533 65.2573 16.92ZM73.9773 16.96C73.9773 16.28 73.8439 15.7 73.5773 15.22C73.3106 14.7267 72.9506 14.3533 72.4973 14.1C72.0439 13.8333 71.5573 13.7 71.0373 13.7C70.5173 13.7 70.0373 13.8267 69.5973 14.08C69.1573 14.3333 68.7973 14.7067 68.5173 15.2C68.2506 15.68 68.1173 16.2533 68.1173 16.92C68.1173 17.5867 68.2506 18.1733 68.5173 18.68C68.7973 19.1733 69.1573 19.5533 69.5973 19.82C70.0506 20.0867 70.5306 20.22 71.0373 20.22C71.5573 20.22 72.0439 20.0933 72.4973 19.84C72.9506 19.5733 73.3106 19.2 73.5773 18.72C73.8439 18.2267 73.9773 17.64 73.9773 16.96ZM88.252 14.18V16.54H79.772V14.18H88.252ZM106.812 8.54V22.5H104.012V13.42L100.272 22.5H98.1521L94.3921 13.42V22.5H91.5921V8.54H94.7721L99.2121 18.92L103.652 8.54H106.812ZM109.06 16.92C109.06 15.8 109.28 14.8067 109.72 13.94C110.174 13.0733 110.78 12.4067 111.54 11.94C112.314 11.4733 113.174 11.24 114.12 11.24C114.947 11.24 115.667 11.4067 116.28 11.74C116.907 12.0733 117.407 12.4933 117.78 13V11.42H120.6V22.5H117.78V20.88C117.42 21.4 116.92 21.8333 116.28 22.18C115.654 22.5133 114.927 22.68 114.1 22.68C113.167 22.68 112.314 22.44 111.54 21.96C110.78 21.48 110.174 20.8067 109.72 19.94C109.28 19.06 109.06 18.0533 109.06 16.92ZM117.78 16.96C117.78 16.28 117.647 15.7 117.38 15.22C117.114 14.7267 116.754 14.3533 116.3 14.1C115.847 13.8333 115.36 13.7 114.84 13.7C114.32 13.7 113.84 13.8267 113.4 14.08C112.96 14.3333 112.6 14.7067 112.32 15.2C112.054 15.68 111.92 16.2533 111.92 16.92C111.92 17.5867 112.054 18.1733 112.32 18.68C112.6 19.1733 112.96 19.5533 113.4 19.82C113.854 20.0867 114.334 20.22 114.84 20.22C115.36 20.22 115.847 20.0933 116.3 19.84C116.754 19.5733 117.114 19.2 117.38 18.72C117.647 18.2267 117.78 17.64 117.78 16.96ZM126.335 13.14C126.695 12.5533 127.162 12.0933 127.735 11.76C128.322 11.4267 128.988 11.26 129.735 11.26V14.2H128.995C128.115 14.2 127.448 14.4067 126.995 14.82C126.555 15.2333 126.335 15.9533 126.335 16.98V22.5H123.535V11.42H126.335V13.14ZM133.241 10.1C132.748 10.1 132.334 9.94667 132.001 9.64C131.681 9.32 131.521 8.92667 131.521 8.46C131.521 7.99333 131.681 7.60667 132.001 7.3C132.334 6.98 132.748 6.82 133.241 6.82C133.734 6.82 134.141 6.98 134.461 7.3C134.794 7.60667 134.961 7.99333 134.961 8.46C134.961 8.92667 134.794 9.32 134.461 9.64C134.141 9.94667 133.734 10.1 133.241 10.1ZM134.621 11.42V22.5H131.821V11.42H134.621ZM136.867 16.92C136.867 15.8 137.087 14.8067 137.527 13.94C137.981 13.0733 138.587 12.4067 139.347 11.94C140.121 11.4733 140.981 11.24 141.927 11.24C142.754 11.24 143.474 11.4067 144.087 11.74C144.714 12.0733 145.214 12.4933 145.587 13V11.42H148.407V22.5H145.587V20.88C145.227 21.4 144.727 21.8333 144.087 22.18C143.461 22.5133 142.734 22.68 141.907 22.68C140.974 22.68 140.121 22.44 139.347 21.96C138.587 21.48 137.981 20.8067 137.527 19.94C137.087 19.06 136.867 18.0533 136.867 16.92ZM145.587 16.96C145.587 16.28 145.454 15.7 145.187 15.22C144.921 14.7267 144.561 14.3533 144.107 14.1C143.654 13.8333 143.167 13.7 142.647 13.7C142.127 13.7 141.647 13.8267 141.207 14.08C140.767 14.3333 140.407 14.7067 140.127 15.2C139.861 15.68 139.727 16.2533 139.727 16.92C139.727 17.5867 139.861 18.1733 140.127 18.68C140.407 19.1733 140.767 19.5533 141.207 19.82C141.661 20.0867 142.141 20.22 142.647 20.22C143.167 20.22 143.654 20.0933 144.107 19.84C144.561 19.5733 144.921 19.2 145.187 18.72C145.454 18.2267 145.587 17.64 145.587 16.96ZM161.188 8.54C162.654 8.54 163.941 8.82667 165.048 9.4C166.168 9.97333 167.028 10.7933 167.628 11.86C168.241 12.9133 168.548 14.14 168.548 15.54C168.548 16.94 168.241 18.1667 167.628 19.22C167.028 20.26 166.168 21.0667 165.048 21.64C163.941 22.2133 162.654 22.5 161.188 22.5H156.308V8.54H161.188ZM161.088 20.12C162.554 20.12 163.688 19.72 164.488 18.92C165.288 18.12 165.688 16.9933 165.688 15.54C165.688 14.0867 165.288 12.9533 164.488 12.14C163.688 11.3133 162.554 10.9 161.088 10.9H159.108V20.12H161.088ZM172.264 10.1C171.77 10.1 171.357 9.94667 171.024 9.64C170.704 9.32 170.544 8.92667 170.544 8.46C170.544 7.99333 170.704 7.60667 171.024 7.3C171.357 6.98 171.77 6.82 172.264 6.82C172.757 6.82 173.164 6.98 173.484 7.3C173.817 7.60667 173.984 7.99333 173.984 8.46C173.984 8.92667 173.817 9.32 173.484 9.64C173.164 9.94667 172.757 10.1 172.264 10.1ZM173.644 11.42V22.5H170.844V11.42H173.644ZM190.37 11.26C191.73 11.26 192.823 11.68 193.65 12.52C194.49 13.3467 194.91 14.5067 194.91 16V22.5H192.11V16.38C192.11 15.5133 191.89 14.8533 191.45 14.4C191.01 13.9333 190.41 13.7 189.65 13.7C188.89 13.7 188.283 13.9333 187.83 14.4C187.39 14.8533 187.17 15.5133 187.17 16.38V22.5H184.37V16.38C184.37 15.5133 184.15 14.8533 183.71 14.4C183.27 13.9333 182.67 13.7 181.91 13.7C181.137 13.7 180.523 13.9333 180.07 14.4C179.63 14.8533 179.41 15.5133 179.41 16.38V22.5H176.61V11.42H179.41V12.76C179.77 12.2933 180.23 11.9267 180.79 11.66C181.363 11.3933 181.99 11.26 182.67 11.26C183.537 11.26 184.31 11.4467 184.99 11.82C185.67 12.18 186.197 12.7 186.57 13.38C186.93 12.74 187.45 12.2267 188.13 11.84C188.823 11.4533 189.57 11.26 190.37 11.26ZM197.047 16.92C197.047 15.8 197.267 14.8067 197.707 13.94C198.16 13.0733 198.767 12.4067 199.527 11.94C200.3 11.4733 201.16 11.24 202.107 11.24C202.934 11.24 203.654 11.4067 204.267 11.74C204.894 12.0733 205.394 12.4933 205.767 13V11.42H208.587V22.5H205.767V20.88C205.407 21.4 204.907 21.8333 204.267 22.18C203.64 22.5133 202.914 22.68 202.087 22.68C201.154 22.68 200.3 22.44 199.527 21.96C198.767 21.48 198.16 20.8067 197.707 19.94C197.267 19.06 197.047 18.0533 197.047 16.92ZM205.767 16.96C205.767 16.28 205.634 15.7 205.367 15.22C205.1 14.7267 204.74 14.3533 204.287 14.1C203.834 13.8333 203.347 13.7 202.827 13.7C202.307 13.7 201.827 13.8267 201.387 14.08C200.947 14.3333 200.587 14.7067 200.307 15.2C200.04 15.68 199.907 16.2533 199.907 16.92C199.907 17.5867 200.04 18.1733 200.307 18.68C200.587 19.1733 200.947 19.5533 201.387 19.82C201.84 20.0867 202.32 20.22 202.827 20.22C203.347 20.22 203.834 20.0933 204.287 19.84C204.74 19.5733 205.1 19.2 205.367 18.72C205.634 18.2267 205.767 17.64 205.767 16.96Z" fill="#373737"/>
</svg>
