<svg width="24" height="15" viewBox="0 0 24 15" fill="none" xmlns="http://www.w3.org/2000/svg">
<path d="M9.08456 14.4759C9.71359 14.311 10.2752 14.0577 10.7641 13.7124C11.2491 13.37 11.6427 12.9264 11.9318 12.379C12.2181 11.8385 12.3615 11.1956 12.3615 10.449C12.3615 9.52783 12.142 8.74225 11.6936 8.08562C11.2475 7.4334 10.5747 6.9748 9.66597 6.71439C10.3333 6.39964 10.8326 5.99423 11.1725 5.50007C11.5097 5.00515 11.6783 4.38598 11.6783 3.64485C11.6783 2.95965 11.5655 2.38008 11.3405 1.9173C11.11 1.44753 10.7882 1.07457 10.3771 0.79417C9.95938 0.513844 9.46498 0.309354 8.88585 0.186782C8.30338 0.0609433 7.6662 0 6.95999 0H0V14.7237H7.15542C7.81675 14.7238 8.46277 14.6408 9.08456 14.4759ZM3.25066 2.50805H6.29165C6.57904 2.50805 6.85988 2.52849 7.12761 2.58069C7.40022 2.62735 7.63511 2.7139 7.84311 2.83921C8.05279 2.95958 8.21866 3.13154 8.34399 3.3513C8.46506 3.57107 8.52525 3.8542 8.52525 4.19677C8.52525 4.81373 8.34399 5.26366 7.97012 5.53578C7.59245 5.81231 7.11557 5.94856 6.53972 5.94856H3.25074L3.25066 2.50805ZM3.25066 12.216V8.16154H6.7843C7.48395 8.16154 8.05271 8.32203 8.47915 8.64468C8.90506 8.97204 9.11907 9.51066 9.11907 10.2696C9.11907 10.6567 9.05614 10.9772 8.92479 11.2239C8.79397 11.4729 8.61385 11.6686 8.39648 11.8114C8.17911 11.9599 7.92128 12.0603 7.63062 12.1237C7.34429 12.1876 7.03991 12.216 6.71915 12.216L3.25066 12.216Z" fill="#47564F"/>
<path d="M14.7894 13.45C15.2673 13.9452 15.8355 14.3252 16.5154 14.5963C17.1959 14.8641 17.9535 15 18.7955 15C20.0036 15 21.0405 14.724 21.8906 14.1701C22.7506 13.6187 23.3812 12.7025 23.7968 11.4191H21.2113C21.1111 11.7492 20.8522 12.0669 20.4268 12.3642C19.9976 12.6618 19.4858 12.8111 18.8935 12.8111C18.0701 12.8111 17.4346 12.5958 16.995 12.1674C16.5537 11.7391 16.268 10.9412 16.268 10.0984H23.9813C24.0366 9.27128 23.9693 8.48121 23.7771 7.72496C23.5833 6.96742 23.2734 6.29202 22.8377 5.7015C22.402 5.10992 21.8474 4.63734 21.1708 4.2887C20.4919 3.93519 19.6998 3.76156 18.7955 3.76156C17.9765 3.76156 17.2369 3.90677 16.5663 4.19538C15.8957 4.48498 15.3198 4.88165 14.8343 5.38424C14.3498 5.88411 13.9814 6.48009 13.7147 7.17069C13.4536 7.85893 13.3201 8.60363 13.3201 9.40084C13.3201 10.2253 13.4488 10.9861 13.7038 11.6733C13.9617 12.3643 14.3235 12.9524 14.7894 13.45ZM16.4021 7.55026C16.4771 7.28414 16.6063 7.0352 16.7957 6.79925C16.9862 6.56718 17.2353 6.37006 17.5391 6.21177C17.85 6.05128 18.2382 5.97263 18.7073 5.97263C19.4282 5.97263 20.0195 6.18092 20.3682 6.56611C20.7185 6.95427 20.9748 7.50626 21.0449 8.25294H16.2679C16.2817 8.04495 16.3266 7.80961 16.4021 7.55026Z" fill="#47564F"/>
<path d="M21.6515 0.988115H15.6675V2.44104H21.6515V0.988115Z" fill="#47564F"/>
</svg>
