<svg width="38" height="38" viewBox="0 0 38 38" fill="none" xmlns="http://www.w3.org/2000/svg">
<circle cx="19" cy="19" r="19" fill="#47564F"/>
<path d="M19.1933 31.6667V27.614M25.9477 20.8596L30.0003 25.3175C30.1854 25.5064 30.3111 25.7454 30.3617 26.0049C30.4122 26.2644 30.3855 26.5331 30.2849 26.7776C30.1842 27.0221 30.0139 27.2317 29.7953 27.3804C29.5766 27.5291 29.3191 27.6103 29.0547 27.614H9.3319C9.0675 27.6103 8.81 27.5291 8.59133 27.3804C8.37266 27.2317 8.20243 27.0221 8.10175 26.7776C8.00107 26.5331 7.97436 26.2644 8.02494 26.0049C8.07552 25.7454 8.20116 25.5064 8.38629 25.3175L12.4389 20.8596H12.0337C11.7693 20.8559 11.5118 20.7747 11.2931 20.626C11.0744 20.4773 10.9042 20.2678 10.8035 20.0233C10.7028 19.7787 10.6761 19.5101 10.7267 19.2505C10.7773 18.991 10.9029 18.752 11.088 18.5632L15.1407 14.1053H14.8705C14.5946 14.1302 14.3177 14.0696 14.0773 13.9318C13.837 13.7941 13.6448 13.5857 13.5268 13.335C13.4089 13.0844 13.3708 12.8035 13.4179 12.5305C13.4649 12.2575 13.5947 12.0055 13.7898 11.8088L19.1933 6L24.5968 11.8088C24.7919 12.0055 24.9217 12.2575 24.9687 12.5305C25.0158 12.8035 24.9777 13.0844 24.8598 13.335C24.7418 13.5857 24.5496 13.7941 24.3093 13.9318C24.0689 14.0696 23.792 14.1302 23.5161 14.1053H23.2459L27.2986 18.5632C27.4837 18.752 27.6093 18.991 27.6599 19.2505C27.7105 19.5101 27.6838 19.7787 27.5831 20.0233C27.4824 20.2678 27.3122 20.4773 27.0935 20.626C26.8749 20.7747 26.6174 20.8559 26.353 20.8596H25.9477Z" stroke="white" stroke-width="2.6" stroke-linecap="round" stroke-linejoin="round"/>
</svg>
