<svg width="38" height="38" viewBox="0 0 38 38" fill="none" xmlns="http://www.w3.org/2000/svg">
<circle cx="19" cy="19" r="19" fill="#47564F"/>
<path d="M19 11.4C20.8 9.6 22.288 9 24.4 9C26.1504 9 27.8292 9.69536 29.0669 10.9331C30.3046 12.1708 31 13.8496 31 15.6C31 18.348 29.188 20.448 27.4 22.2L19 30.6L10.6 22.2C8.8 20.46 7 18.36 7 15.6C7 13.8496 7.69536 12.1708 8.9331 10.9331C10.1708 9.69536 11.8496 9 13.6 9C15.712 9 17.2 9.6 19 11.4ZM19 11.4L15.448 14.952C15.2042 15.194 15.0107 15.4819 14.8786 15.7991C14.7466 16.1163 14.6786 16.4564 14.6786 16.8C14.6786 17.1436 14.7466 17.4837 14.8786 17.8009C15.0107 18.1181 15.2042 18.406 15.448 18.648C16.432 19.632 18.004 19.668 19.048 18.732L21.532 16.452C22.1546 15.887 22.9653 15.5741 23.806 15.5741C24.6467 15.5741 25.4574 15.887 26.08 16.452L29.632 19.644M26.2 23.4L23.8 21M22.6 27L20.2 24.6" stroke="white" stroke-width="2.6" stroke-linecap="round" stroke-linejoin="round"/>
</svg>
