<svg width="38" height="38" viewBox="0 0 38 38" fill="none" xmlns="http://www.w3.org/2000/svg">
<circle cx="19" cy="19" r="19" fill="#47564F"/>
<path d="M19 14.8V31.6M19 14.8C19 13.527 18.4943 12.3061 17.5941 11.4059C16.6939 10.5057 15.473 10 14.2 10H8.2C7.88174 10 7.57652 10.1264 7.35147 10.3515C7.12643 10.5765 7 10.8817 7 11.2V26.8C7 27.1183 7.12643 27.4235 7.35147 27.6485C7.57652 27.8736 7.88174 28 8.2 28H15.4C16.3548 28 17.2705 28.3793 17.9456 29.0544C18.6207 29.7295 19 30.6452 19 31.6M19 14.8C19 13.527 19.5057 12.3061 20.4059 11.4059C21.3061 10.5057 22.527 10 23.8 10H29.8C30.1183 10 30.4235 10.1264 30.6485 10.3515C30.8736 10.5765 31 10.8817 31 11.2V26.8C31 27.1183 30.8736 27.4235 30.6485 27.6485C30.4235 27.8736 30.1183 28 29.8 28H22.6C21.6452 28 20.7295 28.3793 20.0544 29.0544C19.3793 29.7295 19 30.6452 19 31.6M23.8 20.8H26.2M23.8 16H26.2M11.8 20.8H14.2M11.8 16H14.2" stroke="white" stroke-width="2.6" stroke-linecap="round" stroke-linejoin="round"/>
</svg>
