<svg width="38" height="38" viewBox="0 0 38 38" fill="none" xmlns="http://www.w3.org/2000/svg">
<circle cx="19" cy="19" r="19" fill="#47564F"/>
<path d="M7 19.28C7 17.0667 7.45333 15.1067 8.36 13.4C9.29333 11.6933 10.5467 10.3733 12.12 9.44C13.72 8.48 15.48 8 17.4 8C19.1333 8 20.64 8.34667 21.92 9.04C23.2267 9.70667 24.2667 10.5467 25.04 11.56V8.36H29.64V30.4H25.04V27.12C24.2667 28.16 23.2133 29.0267 21.88 29.72C20.5467 30.4133 19.0267 30.76 17.32 30.76C15.4267 30.76 13.6933 30.28 12.12 29.32C10.5467 28.3333 9.29333 26.9733 8.36 25.24C7.45333 23.48 7 21.4933 7 19.28ZM25.04 19.36C25.04 17.84 24.72 16.52 24.08 15.4C23.4667 14.28 22.6533 13.4267 21.64 12.84C20.6267 12.2533 19.5333 11.96 18.36 11.96C17.1867 11.96 16.0933 12.2533 15.08 12.84C14.0667 13.4 13.24 14.24 12.6 15.36C11.9867 16.4533 11.68 17.76 11.68 19.28C11.68 20.8 11.9867 22.1333 12.6 23.28C13.24 24.4267 14.0667 25.3067 15.08 25.92C16.12 26.5067 17.2133 26.8 18.36 26.8C19.5333 26.8 20.6267 26.5067 21.64 25.92C22.6533 25.3333 23.4667 24.48 24.08 23.36C24.72 22.2133 25.04 20.88 25.04 19.36Z" fill="white"/>
</svg>
